<mxfile host="app.diagrams.net" modified="2021-10-29T03:14:19.676Z" agent="5.0 (Macintosh; Intel Mac OS X 10_15_7) AppleWebKit/605.1.15 (KHTML, like Gecko) Version/15.1 Safari/605.1.15" etag="4U9pgPHoxE2Bi5bAEdMY" version="15.6.2" type="github">
  <diagram id="ZH2KbjmxVnfEUtynqmdB" name="Page-1">
    <mxGraphModel dx="770" dy="535" grid="1" gridSize="10" guides="1" tooltips="1" connect="1" arrows="1" fold="1" page="1" pageScale="1" pageWidth="827" pageHeight="1169" math="0" shadow="0">
      <root>
        <mxCell id="0" />
        <mxCell id="1" parent="0" />
        <mxCell id="ALMsAnsDGJCFRArficyo-1" value="&lt;font face=&quot;Comic Sans MS&quot;&gt;&lt;b&gt;&lt;font color=&quot;#ff0000&quot;&gt;Code Coverage&lt;/font&gt;&lt;/b&gt;&lt;br&gt;&lt;br&gt;80%&lt;/font&gt;" style="ellipse;whiteSpace=wrap;html=1;aspect=fixed;sketch=1;" vertex="1" parent="1">
          <mxGeometry x="334" y="220" width="160" height="160" as="geometry" />
        </mxCell>
        <mxCell id="ALMsAnsDGJCFRArficyo-2" value="unit test" style="ellipse;whiteSpace=wrap;html=1;aspect=fixed;fontFamily=Comic Sans MS;sketch=1;" vertex="1" parent="1">
          <mxGeometry x="170" y="140" width="80" height="80" as="geometry" />
        </mxCell>
        <mxCell id="ALMsAnsDGJCFRArficyo-3" value="unit test" style="ellipse;whiteSpace=wrap;html=1;aspect=fixed;fontFamily=Comic Sans MS;sketch=1;" vertex="1" parent="1">
          <mxGeometry x="170" y="360" width="80" height="80" as="geometry" />
        </mxCell>
        <mxCell id="ALMsAnsDGJCFRArficyo-4" value="unit test" style="ellipse;whiteSpace=wrap;html=1;aspect=fixed;fontFamily=Comic Sans MS;sketch=1;" vertex="1" parent="1">
          <mxGeometry x="560" y="140" width="80" height="80" as="geometry" />
        </mxCell>
        <mxCell id="ALMsAnsDGJCFRArficyo-5" value="unit test" style="ellipse;whiteSpace=wrap;html=1;aspect=fixed;fontFamily=Comic Sans MS;sketch=1;" vertex="1" parent="1">
          <mxGeometry x="560" y="360" width="80" height="80" as="geometry" />
        </mxCell>
        <mxCell id="ALMsAnsDGJCFRArficyo-6" value="" style="endArrow=classic;html=1;rounded=0;fontFamily=Comic Sans MS;exitX=1;exitY=1;exitDx=0;exitDy=0;entryX=0;entryY=0;entryDx=0;entryDy=0;sketch=1;" edge="1" parent="1" source="ALMsAnsDGJCFRArficyo-2" target="ALMsAnsDGJCFRArficyo-1">
          <mxGeometry width="50" height="50" relative="1" as="geometry">
            <mxPoint x="370" y="300" as="sourcePoint" />
            <mxPoint x="420" y="250" as="targetPoint" />
          </mxGeometry>
        </mxCell>
        <mxCell id="ALMsAnsDGJCFRArficyo-7" value="" style="endArrow=classic;html=1;rounded=0;fontFamily=Comic Sans MS;exitX=1;exitY=0.5;exitDx=0;exitDy=0;entryX=0;entryY=1;entryDx=0;entryDy=0;sketch=1;" edge="1" parent="1" source="ALMsAnsDGJCFRArficyo-3" target="ALMsAnsDGJCFRArficyo-1">
          <mxGeometry width="50" height="50" relative="1" as="geometry">
            <mxPoint x="220" y="320" as="sourcePoint" />
            <mxPoint x="270" y="270" as="targetPoint" />
          </mxGeometry>
        </mxCell>
        <mxCell id="ALMsAnsDGJCFRArficyo-8" value="" style="endArrow=classic;html=1;rounded=0;fontFamily=Comic Sans MS;exitX=0;exitY=1;exitDx=0;exitDy=0;entryX=1;entryY=0;entryDx=0;entryDy=0;sketch=1;" edge="1" parent="1" source="ALMsAnsDGJCFRArficyo-4" target="ALMsAnsDGJCFRArficyo-1">
          <mxGeometry width="50" height="50" relative="1" as="geometry">
            <mxPoint x="700" y="280" as="sourcePoint" />
            <mxPoint x="750" y="230" as="targetPoint" />
          </mxGeometry>
        </mxCell>
        <mxCell id="ALMsAnsDGJCFRArficyo-9" value="" style="endArrow=classic;html=1;rounded=0;fontFamily=Comic Sans MS;exitX=0;exitY=0.5;exitDx=0;exitDy=0;entryX=1;entryY=1;entryDx=0;entryDy=0;sketch=1;" edge="1" parent="1" source="ALMsAnsDGJCFRArficyo-5" target="ALMsAnsDGJCFRArficyo-1">
          <mxGeometry width="50" height="50" relative="1" as="geometry">
            <mxPoint x="650" y="340" as="sourcePoint" />
            <mxPoint x="700" y="290" as="targetPoint" />
          </mxGeometry>
        </mxCell>
        <mxCell id="ALMsAnsDGJCFRArficyo-10" value="frontend" style="rounded=0;whiteSpace=wrap;html=1;sketch=1;fontFamily=Comic Sans MS;fontColor=#000000;shadow=1;" vertex="1" parent="1">
          <mxGeometry x="160" y="690" width="120" height="90" as="geometry" />
        </mxCell>
        <mxCell id="ALMsAnsDGJCFRArficyo-11" value="Backend" style="rounded=0;whiteSpace=wrap;html=1;sketch=1;fontFamily=Comic Sans MS;fontColor=#000000;glass=0;shadow=1;" vertex="1" parent="1">
          <mxGeometry x="334" y="690" width="120" height="90" as="geometry" />
        </mxCell>
        <mxCell id="ALMsAnsDGJCFRArficyo-12" value="unit test" style="rounded=0;whiteSpace=wrap;html=1;sketch=1;fontFamily=Comic Sans MS;fontColor=#000000;" vertex="1" parent="1">
          <mxGeometry x="160" y="810" width="120" height="40" as="geometry" />
        </mxCell>
        <mxCell id="ALMsAnsDGJCFRArficyo-13" value="unit test" style="rounded=0;whiteSpace=wrap;html=1;sketch=1;fontFamily=Comic Sans MS;fontColor=#000000;" vertex="1" parent="1">
          <mxGeometry x="334" y="810" width="120" height="40" as="geometry" />
        </mxCell>
        <mxCell id="ALMsAnsDGJCFRArficyo-14" value="E2E test" style="rounded=0;whiteSpace=wrap;html=1;sketch=1;fontFamily=Comic Sans MS;fontColor=#000000;" vertex="1" parent="1">
          <mxGeometry x="160" y="880" width="290" height="40" as="geometry" />
        </mxCell>
        <mxCell id="ALMsAnsDGJCFRArficyo-16" value="white box testing" style="rounded=0;whiteSpace=wrap;html=1;sketch=1;fontFamily=Comic Sans MS;fillColor=#dae8fc;strokeColor=#6c8ebf;shadow=0;" vertex="1" parent="1">
          <mxGeometry x="520" y="810" width="150" height="40" as="geometry" />
        </mxCell>
        <mxCell id="ALMsAnsDGJCFRArficyo-17" value="black box testing" style="rounded=0;whiteSpace=wrap;html=1;sketch=1;fontFamily=Comic Sans MS;fillColor=#d5e8d4;strokeColor=#82b366;shadow=0;" vertex="1" parent="1">
          <mxGeometry x="520" y="880" width="150" height="40" as="geometry" />
        </mxCell>
        <mxCell id="ALMsAnsDGJCFRArficyo-18" value="" style="endArrow=none;html=1;rounded=0;sketch=1;fontFamily=Comic Sans MS;fontColor=#000000;" edge="1" parent="1">
          <mxGeometry width="50" height="50" relative="1" as="geometry">
            <mxPoint x="130" y="800" as="sourcePoint" />
            <mxPoint x="680" y="800" as="targetPoint" />
          </mxGeometry>
        </mxCell>
      </root>
    </mxGraphModel>
  </diagram>
</mxfile>
